<svg xmlns="http://www.w3.org/2000/svg" viewBox="0 0 289.85 66.02"><defs><style>.cls-1{fill:#231f20;}.cls-2{fill:#ed1c24;}</style></defs><title>Asset 8</title><g id="Layer_2" data-name="Layer 2"><g id="Layer_1-2" data-name="Layer 1"><path class="cls-1" d="M20.61,35.59H7.37a.57.57,0,0,0-.57.58A32.51,32.51,0,0,0,7.56,44a3.44,3.44,0,0,0,3.61,2.84,3,3,0,0,0,3-1.64,12,12,0,0,0,.81-4.6.57.57,0,0,1,.56-.56h4.68a.58.58,0,0,1,.57.6Q20.27,52,10.63,52,0,52,0,35.2,0,16.87,11,16.88A9.5,9.5,0,0,1,18.18,20q3,3.16,3,13.09V35A.57.57,0,0,1,20.61,35.59Zm-6.46-5a.57.57,0,0,0,.57-.59,21.76,21.76,0,0,0-.81-6.7,3,3,0,0,0-3-2.21A3.21,3.21,0,0,0,7.6,23.46a22.27,22.27,0,0,0-.8,6.59.58.58,0,0,0,.57.58Z"/><path class="cls-1" d="M42,22.42h-3a.57.57,0,0,0-.57.57V51a.56.56,0,0,1-.57.56H32.67A.57.57,0,0,1,32.1,51V23a.57.57,0,0,0-.56-.57h-3a.56.56,0,0,1-.57-.56V18a.57.57,0,0,1,.57-.57h3a.56.56,0,0,0,.56-.56V8.65a.57.57,0,0,1,.57-.56h5.27a.56.56,0,0,1,.57.56v8.17a.56.56,0,0,0,.57.56h3a.57.57,0,0,1,.57.57v3.91A.56.56,0,0,1,42,22.42Z"/><path class="cls-1" d="M70,51.52H64.85a.57.57,0,0,1-.57-.56V26.72c0-3.26-1.31-4.88-3.94-4.88s-4.06,1.81-4.06,5.43V51a.57.57,0,0,1-.57.56H50.36a.56.56,0,0,1-.57-.56V.64a.56.56,0,0,1,.57-.56h5.35a.57.57,0,0,1,.57.56v18.3a.56.56,0,0,0,.93.42,9.29,9.29,0,0,1,6.1-2.48q7.26,0,7.26,7.85V51A.56.56,0,0,1,70,51.52Z"/><path class="cls-2" d="M80,8a3.49,3.49,0,0,1,.13-1.71A4,4,0,0,1,82.7,3.55a2.15,2.15,0,0,1,.64-.11,3.36,3.36,0,0,1,2.48,1.05c.69.71,35,1.53,35,2.46s-34.34,1.79-35,2.48a3.39,3.39,0,0,1-2.48,1,3.53,3.53,0,0,1-3.13-1.85A2.12,2.12,0,0,1,80,8Zm.74,9.34h5.2a.57.57,0,0,1,.56.57V51a.56.56,0,0,1-.56.56H80.7a.56.56,0,0,1-.56-.56V18A.57.57,0,0,1,80.7,17.38Z"/><path class="cls-1" d="M106.3,16.8a9.53,9.53,0,0,1,7.85,3.71q3,3.7,3,14.37,0,10-3.1,13.56A9.76,9.76,0,0,1,106.38,52q-5.67,0-8.4-4.26c-1.82-2.83-2.73-7.2-2.73-13.08q0-10.81,3.12-14.34a10,10,0,0,1,7.77-3.51Zm4,19.68q0-8.7-.82-11.56c-.54-1.9-1.64-2.85-3.28-2.85A3.17,3.17,0,0,0,103,24.3a23.2,23.2,0,0,0-.86,7.54q0,10.35,1,12.65a3.27,3.27,0,0,0,3.18,2.31,3.14,3.14,0,0,0,3.2-2.33Q110.32,42.15,110.32,36.48Z"/><path class="cls-1" d="M141.22,50.1a.6.6,0,0,1-.34.53A13.14,13.14,0,0,1,135.43,52a8.15,8.15,0,0,1-7.65-4.29q-2.43-4.31-2.42-13.52,0-9.81,3.08-13.59a9.09,9.09,0,0,1,7.19-3.79,17.21,17.21,0,0,1,5.11,1.07.59.59,0,0,1,.4.55v4.16a.56.56,0,0,1-.77.53,8.06,8.06,0,0,0-2.83-.69q-2.78,0-4,3t-1.25,9.39q0,11.61,5,11.61a8.14,8.14,0,0,0,3.12-.85.57.57,0,0,1,.79.52Z"/><path class="cls-1" d="M159.14,16.8A9.55,9.55,0,0,1,167,20.51q3,3.7,3,14.37,0,10-3.11,13.56A9.74,9.74,0,0,1,159.22,52q-5.67,0-8.4-4.26c-1.83-2.83-2.74-7.2-2.74-13.08q0-10.81,3.13-14.34A10,10,0,0,1,159,16.8Zm4,19.68q0-8.7-.82-11.56t-3.28-2.85a3.17,3.17,0,0,0-3.2,2.23c-.58,1.48-.86,4-.86,7.54q0,10.35.95,12.65a3.29,3.29,0,0,0,3.19,2.31,3.15,3.15,0,0,0,3.2-2.33Q163.16,42.15,163.16,36.48Z"/><path class="cls-1" d="M185,51.52h-5.27a.56.56,0,0,1-.57-.56V.57a.56.56,0,0,1,.57-.57H185a.57.57,0,0,1,.57.57V51A.57.57,0,0,1,185,51.52Z"/><path class="cls-1" d="M201,51.52h-5.27a.56.56,0,0,1-.57-.56V.57a.56.56,0,0,1,.57-.57H201a.57.57,0,0,1,.57.57V51A.57.57,0,0,1,201,51.52Z"/><path class="cls-1" d="M231.17,51.52H225.9a.56.56,0,0,1-.57-.56V47.38h-.2c-1.63,3.08-3.75,4.61-6.35,4.61a7.4,7.4,0,0,1-5.84-3.1q-2.53-3.11-2.53-13.93,0-9.62,1.91-13.85a6.65,6.65,0,0,1,6.54-4.23,5.71,5.71,0,0,1,3.53,1,12.29,12.29,0,0,1,2.74,3.24h.2V18a.57.57,0,0,1,.57-.57h5.27a.57.57,0,0,1,.56.57V51A.56.56,0,0,1,231.17,51.52Zm-9.9-5.11q2.43,0,3.25-2.93a42.27,42.27,0,0,0,.81-10,35.16,35.16,0,0,0-.74-8.7,3,3,0,0,0-3.09-2.52,3.3,3.3,0,0,0-3.27,2.35q-.91,2.34-.91,8.48A50.23,50.23,0,0,0,218,43.38Q218.75,46.41,221.27,46.41Z"/><path class="cls-1" d="M260.71,55.86q0,5.31-2.45,7.73T250.42,66q-5.73,0-8.19-2.19c-1.55-1.39-2.36-3.88-2.41-7.47a.57.57,0,0,1,.57-.58h5a.58.58,0,0,1,.57.53q.47,5.05,4.27,5.06c2.75,0,4.12-1.4,4.12-4.18V47h-.15q-1.87,5-6.62,5a6.64,6.64,0,0,1-5.54-3.16q-2.25-3.16-2.26-15.08,0-10.74,2.07-13.81a7.51,7.51,0,0,1,9.68-2.13,11.49,11.49,0,0,1,2.67,3h.15V18a.58.58,0,0,1,.57-.57h5.2a.57.57,0,0,1,.56.57Zm-10.14-9.77a3,3,0,0,0,3-2.44,29.64,29.64,0,0,0,.79-8.22c0-5.49-.24-9.11-.71-10.84a3.05,3.05,0,0,0-3.1-2.6c-1.45,0-2.48.84-3.1,2.52a25,25,0,0,0-.94,8.07A55.33,55.33,0,0,0,247.21,43C247.67,45.07,248.79,46.09,250.57,46.09Z"/><path class="cls-1" d="M289.28,35.59H276a.58.58,0,0,0-.57.58,33,33,0,0,0,.76,7.79,3.45,3.45,0,0,0,3.62,2.84,3,3,0,0,0,3-1.64,12.26,12.26,0,0,0,.8-4.6.57.57,0,0,1,.57-.56h4.67a.58.58,0,0,1,.58.6Q288.93,52,279.3,52q-10.62,0-10.62-16.79,0-18.33,11-18.32A9.5,9.5,0,0,1,286.86,20q3,3.16,3,13.09V35A.58.58,0,0,1,289.28,35.59Zm-6.45-5a.59.59,0,0,0,.57-.59,21.39,21.39,0,0,0-.82-6.7,3,3,0,0,0-3-2.21,3.23,3.23,0,0,0-3.34,2.33,22.34,22.34,0,0,0-.79,6.59.57.57,0,0,0,.56.58Z"/></g></g></svg>